HIERARCHY
ROOT Hips
{
	OFFSET -0.001795 -0.223333 0.028219
	CHANNELS 6 Xposition Yposition Zposition Zrotation Yrotation Xrotation
	JOINT LeftUpLeg
	{
		OFFSET 0.069520 -0.091406 -0.006815
		CHANNELS 3 Zrotation Yrotation Xrotation
		JOINT LeftLeg
		{
			OFFSET 0.034277 -0.375199 -0.004496
			CHANNELS 3 Zrotation Yrotation Xrotation
			JOINT LeftFoot
			{
				OFFSET -0.013596 -0.397961 -0.043693
				CHANNELS 3 Zrotation Yrotation Xrotation
				JOINT LeftToe
				{
					OFFSET 0.026358 -0.055791 0.119288
					CHANNELS 3 Zrotation Yrotation Xrotation
					End Site
					{
						OFFSET 0.000000 0.000000 0.000000
					}
				}
			}
		}
	}
	JOINT RightUpLeg
	{
		OFFSET -0.067670 -0.090522 -0.004320
		CHANNELS 3 Zrotation Yrotation Xrotation
		JOINT RightLeg
		{
			OFFSET -0.038290 -0.382569 -0.008850
			CHANNELS 3 Zrotation Yrotation Xrotation
			JOINT RightFoot
			{
				OFFSET 0.015774 -0.398415 -0.042312
				CHANNELS 3 Zrotation Yrotation Xrotation
				JOINT RightToe
				{
					OFFSET -0.025372 -0.048144 0.123348
					CHANNELS 3 Zrotation Yrotation Xrotation
					End Site
					{
						OFFSET 0.000000 0.000000 0.000000
					}
				}
			}
		}
	}
	JOINT Spine
	{
		OFFSET -0.002533 0.108963 -0.026696
		CHANNELS 3 Zrotation Yrotation Xrotation
		JOINT Spine1
		{
			OFFSET 0.005487 0.135180 0.001092
			CHANNELS 3 Zrotation Yrotation Xrotation
			JOINT Spine2
			{
				OFFSET 0.001457 0.052922 0.025425
				CHANNELS 3 Zrotation Yrotation Xrotation
				JOINT Neck
				{
					OFFSET -0.002778 0.213870 -0.042857
					CHANNELS 3 Zrotation Yrotation Xrotation
					JOINT Head
					{
						OFFSET 0.005152 0.064970 0.051349
						CHANNELS 3 Zrotation Yrotation Xrotation
						End Site
						{
							OFFSET 0.000000 0.000000 0.000000
						}
					}
				}
				JOINT LeftShoulder
				{
					OFFSET 0.078845 0.121749 -0.034090
					CHANNELS 3 Zrotation Yrotation Xrotation
					JOINT LeftArm
					{
						OFFSET 0.090977 0.030469 -0.008868
						CHANNELS 3 Zrotation Yrotation Xrotation
						JOINT LeftForeArm
						{
							OFFSET 0.259612 -0.012772 -0.027456
							CHANNELS 3 Zrotation Yrotation Xrotation
							JOINT LeftHand
							{
								OFFSET 0.249234 0.008986 -0.001171
								CHANNELS 3 Zrotation Yrotation Xrotation
								End Site
								{
									OFFSET 0.000000 0.000000 0.000000
								}
							}
						}
					}
				}
				JOINT RightShoulder
				{
					OFFSET -0.081759 0.118833 -0.038615
					CHANNELS 3 Zrotation Yrotation Xrotation
					JOINT RightArm
					{
						OFFSET -0.096012 0.032551 -0.009143
						CHANNELS 3 Zrotation Yrotation Xrotation
						JOINT RightForeArm
						{
							OFFSET -0.253742 -0.013329 -0.021401
							CHANNELS 3 Zrotation Yrotation Xrotation
							JOINT RightHand
							{
								OFFSET -0.255298 0.007772 -0.005559
								CHANNELS 3 Zrotation Yrotation Xrotation
								End Site
								{
									OFFSET 0.000000 0.000000 0.000000
								}
							}
						}
					}
				}
			}
		}
	}
}
MOTION
Frames: 5
Frame Time: 0.050000
-0.109608 0.852417 0.006590 -5.977126 10.701133 -5.897865 24.961499 0.401853 -14.192542 -12.274920 2.193025 33.976539 16.554179 30.490611 7.180768 0.000000 0.000000 0.000000 -20.071002 -2.597864 -20.307843 10.964972 -4.115748 27.475576 2.105904 -1.316702 16.372441 0.000000 0.000000 0.000000 -5.381695 -0.294475 17.089875 12.566042 -2.828828 -21.310656 0.470210 -1.843859 25.260014 3.685453 -2.391077 -6.530805 0.000000 0.000000 0.000000 -19.401136 -1.599761 -1.389849 -42.877441 -28.558448 2.870137 138.783295 -72.982207 -120.586989 0.000000 0.000000 0.000000 14.284888 4.776920 2.582686 44.788964 26.552060 2.820984 -92.797692 48.976761 -41.309768 0.000000 0.000000 0.000000
-0.115791 0.848301 0.009413 -5.705700 10.338585 -5.100047 25.255279 0.499051 -14.820271 -12.428238 2.335514 34.243967 16.785906 30.893315 7.067581 0.000000 0.000000 0.000000 -20.354454 -2.567840 -20.164632 9.682774 -3.470531 26.764627 5.143471 5.568937 12.742600 0.000000 0.000000 0.000000 -5.068194 -0.294594 16.605472 11.949766 -2.652170 -21.143287 0.595744 -0.945355 25.483511 2.596149 -1.351994 -6.537880 0.000000 0.000000 0.000000 -18.839418 -3.109011 -0.685227 -40.993966 -28.083862 2.455910 133.212562 -72.635812 -114.112769 0.000000 0.000000 0.000000 14.501295 5.492725 3.082556 45.653088 27.473426 3.296755 -95.895655 48.518912 -42.549359 0.000000 0.000000 0.000000
-0.125294 0.842194 0.013270 -5.281753 9.923469 -4.782690 26.134154 0.663780 -15.506840 -13.302158 2.794374 35.513055 16.851901 30.969845 7.616321 0.000000 0.000000 0.000000 -20.700012 -2.531590 -19.766209 11.081622 -3.937921 26.475042 3.529241 4.798234 7.430635 0.000000 0.000000 0.000000 -4.564719 -0.336439 16.585028 11.026607 -2.522149 -19.811150 0.922506 -0.655751 24.685685 1.508574 -0.488339 -5.846661 0.000000 0.000000 0.000000 -19.664703 -2.778253 -0.973025 -40.368162 -27.539232 2.282618 128.804558 -72.953131 -109.378407 0.000000 0.000000 0.000000 14.468856 6.552260 3.576825 46.220485 29.433812 4.282402 -98.132195 48.343994 -44.020251 0.000000 0.000000 0.000000
-0.138457 0.836255 0.018107 -5.463133 9.307338 -4.452608 27.836928 0.794612 -15.216117 -13.909571 3.153725 35.177267 16.868402 31.053938 7.409055 0.000000 0.000000 0.000000 -20.054104 -2.341790 -20.137191 13.952762 -5.003847 26.418925 0.088776 -1.114408 3.367239 0.000000 0.000000 0.000000 -3.023943 -0.515353 16.430384 9.460425 -2.034314 -19.863759 0.740926 -0.572107 24.892477 0.493342 0.402089 -5.996439 0.000000 0.000000 0.000000 -19.659439 -2.978093 -0.814961 -39.079288 -24.560928 1.195142 128.580552 -74.649759 -110.854504 0.000000 0.000000 0.000000 14.398337 6.635432 3.578864 47.210915 31.035305 5.154388 -101.810001 49.749530 -48.267505 0.000000 0.000000 0.000000
-0.154119 0.831605 0.024129 -5.734861 9.231223 -4.494405 29.591146 0.753289 -14.210106 -14.130460 3.220424 33.918178 16.518974 30.585616 7.021774 0.000000 0.000000 0.000000 -19.359240 -2.219102 -20.507838 15.065732 -5.619988 27.511325 -0.500914 -1.350087 0.207148 0.000000 0.000000 0.000000 -2.639479 -0.550558 16.107530 8.706916 -1.897243 -18.889704 0.661318 -1.257144 24.134696 -0.145667 0.798770 -5.274309 0.000000 0.000000 0.000000 -19.028366 -2.908123 -0.626689 -38.849362 -21.728644 0.333935 121.129129 -76.139082 -103.859221 0.000000 0.000000 0.000000 13.964733 7.318035 3.716510 47.565904 31.785558 5.677558 -104.149532 50.540002 -51.552256 0.000000 0.000000 0.000000
